<svg preserveAspectRatio="none" width="100%" height="100%" overflow="visible" style="display: block;" viewBox="0 0 94.5361 99.3947" fill="none" xmlns="http://www.w3.org/2000/svg">
<g id="Group 26">
<path id="Union" d="M94.0777 49.8095C94.1665 49.9893 94.1492 50.2075 94.0272 50.3726L58.1581 98.8811C58.0183 99.0701 57.772 99.1471 57.5491 99.0724L0.52686 79.9204C0.304518 79.8457 0.1552 79.6363 0.15706 79.4018L0.648954 19.184C0.65087 18.9494 0.803585 18.7425 1.02718 18.6715L58.4178 0.497087C58.6417 0.426451 58.8861 0.508141 59.0226 0.6993L94.0324 49.735L94.0777 49.8095ZM58.3693 1.65005L1.73066 19.5864L1.2452 79.0171L57.5214 97.9188L92.9214 50.0443L58.3693 1.65005ZM83.496 49.728C83.585 49.9079 83.5676 50.1258 83.4455 50.2911L54.9757 88.7932C54.8359 88.9823 54.5896 89.0603 54.3667 88.9855L9.10657 73.7833C8.88427 73.7085 8.73486 73.4991 8.73677 73.2646L9.1272 25.4683C9.12918 25.2337 9.28181 25.0268 9.50542 24.9558L55.0574 10.5305C55.2815 10.4596 55.5256 10.5415 55.6622 10.7327L83.4507 49.6534L83.496 49.728ZM55.0099 11.6825L10.2089 25.8708L9.82491 72.8799L54.3381 87.8309L82.3397 49.9627L55.0099 11.6825ZM73.174 49.6486C73.2628 49.8282 73.2453 50.0456 73.1235 50.2107L51.7678 79.0929C51.628 79.2819 51.3816 79.3589 51.1587 79.2842L17.2078 67.8815C16.9854 67.8068 16.8361 67.5974 16.838 67.3628L17.1309 31.5095C17.1329 31.275 17.2856 31.068 17.5091 30.997L51.6787 20.1761C51.9027 20.1054 52.148 20.1871 52.2845 20.3783L73.1287 49.574L73.174 49.6486ZM51.6312 21.3281L18.2126 31.9119L17.9261 66.9781L51.1301 78.1306L72.0178 49.8823L51.6312 21.3281ZM62.8511 49.5691C62.9402 49.749 62.9227 49.9669 62.8006 50.1322L48.8471 69.0032C48.7073 69.1922 48.461 69.2693 48.2381 69.1946L26.0561 61.7446C25.8338 61.6699 25.6845 61.4603 25.6863 61.2259L25.8776 37.7999C25.8796 37.5653 26.0321 37.3583 26.2558 37.2874L48.5819 30.2175C48.8059 30.1468 49.0502 30.2285 49.1867 30.4198L62.8058 49.4955L62.8511 49.5691ZM48.5334 31.3705L26.9584 38.2023L26.7734 60.8412L48.2104 68.041L61.6948 49.8038L48.5334 31.3705ZM52.8797 49.4935C52.9685 49.6733 52.9512 49.8905 52.8292 50.0556L45.734 59.6523C45.5941 59.8413 45.3479 59.9185 45.125 59.8436L33.845 56.0551C33.6228 55.9803 33.4733 55.7708 33.4752 55.5364L33.5725 43.6237C33.5746 43.3892 33.7272 43.1821 33.9507 43.1112L45.3037 39.5163C45.5278 39.4453 45.7719 39.5273 45.9085 39.7185L52.8344 49.4189L52.8797 49.4935ZM45.2562 40.6683L34.6532 44.0261L34.5623 55.1517L45.0963 58.69L51.7234 49.7273L45.2562 40.6683Z" fill="url(#paint0_linear_0_123)" fill-opacity="0.5"/>
<path id="Vector 10" d="M93.4114 50.0083L48.6406 30.6239L26.4937 37.7962L26.2211 61.26L45.2886 59.3255L93.4114 50.0083Z" fill="var(--fill-0, #E5B723)" fill-opacity="0.5" stroke="var(--stroke-0, #E5B723)" stroke-width="1.15354" stroke-linejoin="round"/>
</g>
<defs>
<linearGradient id="paint0_linear_0_123" x1="0.4026" y1="49.3147" x2="94.1331" y2="50.0803" gradientUnits="userSpaceOnUse">
<stop stop-color="#D2CD87"/>
<stop offset="1" stop-color="#E4B623"/>
</linearGradient>
</defs>
</svg>
